<?xml version="1.0" standalone="no"?>
<!DOCTYPE svg PUBLIC "-//W3C//DTD SVG 20010904//EN"
 "http://www.w3.org/TR/2001/REC-SVG-20010904/DTD/svg10.dtd">
<svg version="1.0" xmlns="http://www.w3.org/2000/svg"
 width="310.000000pt" height="310.000000pt" viewBox="0 0 310.000000 310.000000"
 preserveAspectRatio="xMidYMid meet">
<metadata>
Created by potrace 1.11, written by Peter Selinger 2001-2013
</metadata>
<g transform="translate(0.000000,310.000000) scale(0.100000,-0.100000)"
fill="#000000" stroke="none">
<path d="M1496 2963 c-25 -65 -51 -136 -59 -158 -8 -22 -49 -128 -91 -235 -43
-107 -99 -253 -126 -325 -67 -182 -77 -203 -97 -208 -10 -3 -88 -8 -173 -12
-85 -3 -218 -10 -295 -15 -77 -5 -239 -14 -360 -20 -224 -11 -275 -16 -275
-28 1 -4 58 -53 128 -109 70 -56 185 -150 257 -208 72 -59 193 -157 270 -220
77 -62 156 -127 175 -143 l35 -29 -47 -174 c-26 -96 -66 -246 -89 -334 -22
-88 -52 -198 -64 -245 -58 -210 -86 -323 -83 -331 2 -5 68 34 148 85 80 52
190 124 245 159 55 36 202 131 328 212 l227 147 228 -147 c125 -81 272 -176
327 -212 55 -35 165 -107 245 -159 80 -51 146 -90 148 -85 3 8 -25 121 -83
331 -12 47 -42 157 -64 245 -23 88 -63 238 -89 334 l-47 174 35 29 c19 16 98
81 175 143 77 63 199 161 270 220 72 58 187 152 257 208 70 56 127 105 128
109 0 12 -51 17 -275 28 -121 6 -283 15 -360 20 -77 5 -210 12 -295 15 -85 4
-163 9 -173 12 -20 5 -30 26 -97 208 -27 72 -83 218 -126 325 -42 107 -83 213
-91 235 -44 124 -106 275 -113 275 -5 0 -29 -53 -54 -117z"/>
</g>
</svg>
