<svg xmlns="http://www.w3.org/2000/svg" xmlns:xlink="http://www.w3.org/1999/xlink" width="14" height="8" viewBox="0 0 14 8"><defs><path id="riqea" d="M122.85 27.966h.837s.252-.027.381-.167c.12-.128.115-.368.115-.368s-.016-1.125.505-1.29c.514-.163 1.174 1.087 1.873 1.568.528.363.93.284.93.284l1.87-.027s.978-.06.514-.83c-.038-.063-.27-.57-1.39-1.611-1.172-1.09-1.015-.914.397-2.8.86-1.147 1.204-1.848 1.096-2.148-.102-.286-.735-.21-.735-.21l-2.105.012s-.156-.02-.272.048c-.113.068-.185.227-.185.227s-.334.888-.778 1.644c-.937 1.594-1.312 1.678-1.465 1.58-.357-.232-.268-.928-.268-1.422 0-1.546.234-2.19-.455-2.356-.229-.056-.398-.092-.983-.098-.751-.008-1.387.002-1.747.179-.24.117-.424.379-.311.394.139.018.454.085.62.313.217.294.21.954.21.954s.123 1.819-.29 2.045c-.284.155-.673-.162-1.509-1.608-.428-.741-.751-1.56-.751-1.56s-.063-.153-.174-.235c-.135-.1-.323-.13-.323-.13l-2 .012s-.3.009-.411.14c-.098.116-.008.356-.008.356s1.566 3.67 3.34 5.52c1.625 1.696 3.472 1.584 3.472 1.584"/></defs><g><g clip-path="url(#clip-124C43E5-0E55-4B74-BEB9-346FF4A7F2EE)" transform="translate(-116 -20)"><use fill="#c1b6a5" xlink:href="#riqea"/></g></g></svg>