<svg xmlns="http://www.w3.org/2000/svg" xmlns:xlink="http://www.w3.org/1999/xlink" width="9" height="12" viewBox="0 0 9 12"><defs><path id="149ra" d="M1034.267 24.238a1.092 1.092 0 0 1 0-2.182 1.092 1.092 0 0 1 0 2.182zm0-2.618a1.53 1.53 0 0 0-1.527 1.527 1.53 1.53 0 0 0 1.527 1.528 1.53 1.53 0 0 0 1.528-1.528 1.53 1.53 0 0 0-1.528-1.527z"/><path id="149rb" d="M1037.217 25.858l-2.993 4.322-2.998-4.33c-1.134-1.512-.972-3.996.348-5.316a3.723 3.723 0 0 1 2.65-1.098c1.001 0 1.942.39 2.65 1.098 1.32 1.32 1.483 3.804.343 5.324zm-.034-5.632a4.157 4.157 0 0 0-2.959-1.226 4.156 4.156 0 0 0-2.958 1.226c-1.463 1.462-1.645 4.213-.394 5.88l3.352 4.841 3.347-4.834c1.256-1.674 1.074-4.425-.388-5.887z"/></defs><g><g transform="translate(-1030 -19)"><g><use xlink:href="#149ra"/></g><g><use xlink:href="#149rb"/></g></g></g></svg>