<svg xmlns="http://www.w3.org/2000/svg" xmlns:xlink="http://www.w3.org/1999/xlink" width="13" height="8" viewBox="0 0 13 8"><defs><path id="pdaxa" d="M844.013 28.853l-4.183-3.3 4.183-2.592zm0 .618c0 .06-.05.11-.11.11H832.51a.11.11 0 0 1-.11-.11v-.107l4.534-3.583 1.165.728a.2.2 0 0 0 .214 0l1.165-.728 4.534 3.583zm-11.611-6.534l4.172 2.601-4.172 3.305zm.11-.535h11.39a.11.11 0 0 1 .105.077l-5.8 3.623-5.8-3.623a.11.11 0 0 1 .104-.077zm11.39-.402h-11.39a.511.511 0 0 0-.512.511v6.963c0 .282.229.511.511.511h11.392a.511.511 0 0 0 .511-.511V22.51a.511.511 0 0 0-.511-.511z"/></defs><g><g transform="translate(-832 -22)"><use xlink:href="#pdaxa"/></g></g></svg>