<svg xmlns="http://www.w3.org/2000/svg" xmlns:xlink="http://www.w3.org/1999/xlink" width="12" height="12" viewBox="0 0 12 12"><defs><path id="bvzka" d="M1208 30.6a5.606 5.606 0 0 1-5.6-5.6c0-3.088 2.512-5.6 5.6-5.6 3.088 0 5.6 2.512 5.6 5.6 0 3.088-2.512 5.6-5.6 5.6zm0-11.6c-3.308 0-6 2.692-6 6s2.692 6 6 6 6-2.692 6-6-2.692-6-6-6z"/><path id="bvzkb" d="M1208 20.2a.2.2 0 0 0-.2.2V25h-3a.2.2 0 1 0 0 .4h3.2a.2.2 0 0 0 .2-.2v-4.8a.2.2 0 0 0-.2-.2z"/></defs><g><g transform="translate(-1202 -19)"><g><use xlink:href="#bvzka"/></g><g><use xlink:href="#bvzkb"/></g></g></g></svg>