<svg xmlns="http://www.w3.org/2000/svg" xmlns:xlink="http://www.w3.org/1999/xlink" width="12" height="12" viewBox="0 0 12 12"><defs><path id="f6e7a" d="M648.285 28.137l-.7 1.789a.946.946 0 0 1-.508.51 1.48 1.48 0 0 1-1.152-.16 18.704 18.704 0 0 1-8.254-8.245 1.697 1.697 0 0 1-.16-1.148.798.798 0 0 1 .52-.499l1.8-.712c.128-.052.264-.08.401-.082a.924.924 0 0 1 .795.583l.363.71c.173.34.334.845-.275 1.261l-.728.483a.237.237 0 0 0-.067.315 16.631 16.631 0 0 0 4.703 4.71.237.237 0 0 0 .316-.067l.482-.728a.817.817 0 0 1 1.19-.316l.769.404c.34.183.763.508.505 1.192zm-.29-1.608l-.776-.41a1.29 1.29 0 0 0-1.798.473l-.354.53a16.15 16.15 0 0 1-4.22-4.236l.53-.35c.382-.26.946-.849.432-1.865l-.369-.71c-.545-1.009-1.35-.886-1.782-.718l-1.8.712c-.377.125-.673.42-.799.795a2.139 2.139 0 0 0 .199 1.517 19.155 19.155 0 0 0 8.453 8.447c.317.165.667.257 1.025.268a1.353 1.353 0 0 0 1.262-.845v-.022l.716-1.807c.164-.433.287-1.237-.72-1.78z"/></defs><g><g transform="translate(-637 -19)"><use xlink:href="#f6e7a"/></g></g></svg>