<svg xmlns="http://www.w3.org/2000/svg" xmlns:xlink="http://www.w3.org/1999/xlink" width="12" height="12" viewBox="0 0 12 12"><defs><path id="9hp2a" d="M165.904 19.107c1.566 0 1.751.005 2.37.034.571.026.882.121 1.089.202.273.106.469.233.674.438.205.205.332.4.439.674.08.207.176.518.202 1.09.028.618.034.803.034 2.369 0 1.565-.006 1.75-.034 2.37-.026.57-.122.881-.202 1.088a1.817 1.817 0 0 1-.439.674c-.205.205-.4.332-.674.439-.207.08-.518.175-1.09.202-.618.028-.803.034-2.37.034-1.565 0-1.75-.006-2.37-.034-.571-.027-.881-.122-1.088-.202a1.817 1.817 0 0 1-.674-.439 1.816 1.816 0 0 1-.44-.674c-.08-.207-.175-.517-.201-1.089-.028-.618-.034-.804-.034-2.37 0-1.565.006-1.75.034-2.369.026-.571.122-.882.202-1.089.106-.273.233-.469.439-.674.205-.205.4-.332.674-.438.207-.08.517-.176 1.089-.202.618-.029.804-.034 2.37-.034m0-1.057c-1.593 0-1.792.007-2.418.035-.624.029-1.05.128-1.423.273-.386.15-.713.35-1.039.676a2.877 2.877 0 0 0-.676 1.039c-.145.373-.244.799-.273 1.423-.028.626-.035.825-.035 2.418 0 1.592.007 1.792.035 2.417.029.624.128 1.05.273 1.424.15.385.35.712.676 1.038.326.326.653.527 1.039.676.373.145.799.245 1.423.273.626.029.825.035 2.418.035 1.592 0 1.792-.006 2.417-.035.624-.028 1.05-.128 1.424-.273.385-.15.712-.35 1.038-.676.326-.326.527-.653.677-1.038.145-.373.244-.8.272-1.424.029-.625.035-.825.035-2.417 0-1.593-.006-1.792-.035-2.418-.028-.624-.127-1.05-.272-1.423a2.876 2.876 0 0 0-.677-1.039 2.873 2.873 0 0 0-1.038-.676c-.373-.145-.8-.244-1.424-.273-.625-.028-.825-.035-2.417-.035"/><path id="9hp2b" d="M165.901 20.91a3.011 3.011 0 1 0 0 6.022 3.011 3.011 0 0 0 0-6.022m0 4.966a1.955 1.955 0 1 1 0-3.91 1.955 1.955 0 0 1 0 3.91"/><path id="9hp2c" d="M170.055 20.952c0 .48-.387.87-.865.87a.867.867 0 0 1-.864-.87c0-.48.387-.87.864-.87.478 0 .865.39.865.87"/></defs><g><g transform="translate(-160 -18)"><g><use fill="#c1b6a5" xlink:href="#9hp2a"/></g><g><use fill="#c1b6a5" xlink:href="#9hp2b"/></g><g><use fill="#c1b6a5" xlink:href="#9hp2c"/></g></g></g></svg>