<svg xmlns="http://www.w3.org/2000/svg" xmlns:xlink="http://www.w3.org/1999/xlink" width="31" height="31" viewBox="0 0 31 31"><defs><path id="obbba" d="M175.238 4724.868c4.045 0 4.524.016 6.121.089 1.477.067 2.279.314 2.813.521a4.695 4.695 0 0 1 1.741 1.134c.53.53.859 1.034 1.134 1.741.207.534.454 1.336.521 2.813.073 1.598.088 2.077.088 6.122s-.015 4.524-.088 6.121c-.067 1.477-.314 2.28-.521 2.813a4.696 4.696 0 0 1-1.134 1.742c-.53.53-1.034.859-1.741 1.133-.534.208-1.336.454-2.813.522-1.597.073-2.076.088-6.121.088s-4.524-.015-6.12-.088c-1.478-.068-2.28-.314-2.814-.522a4.692 4.692 0 0 1-1.741-1.133 4.693 4.693 0 0 1-1.134-1.742c-.207-.534-.454-1.336-.521-2.813-.073-1.597-.088-2.076-.088-6.121s.015-4.524.088-6.122c.067-1.477.314-2.279.521-2.813a4.692 4.692 0 0 1 1.134-1.741 4.695 4.695 0 0 1 1.741-1.134c.534-.207 1.336-.454 2.813-.521 1.597-.073 2.076-.089 6.121-.089m0-2.728c-4.114 0-4.63.017-6.245.091-1.613.074-2.714.33-3.677.704a7.425 7.425 0 0 0-2.684 1.747 7.432 7.432 0 0 0-1.747 2.683c-.374.964-.63 2.065-.704 3.677-.073 1.616-.091 2.132-.091 6.246 0 4.114.018 4.63.091 6.245.074 1.613.33 2.714.704 3.677.388.996.906 1.841 1.747 2.683a7.425 7.425 0 0 0 2.684 1.747c.963.375 2.064.63 3.677.704 1.615.074 2.131.092 6.245.092 4.114 0 4.63-.018 6.245-.092 1.613-.073 2.714-.33 3.677-.704a7.422 7.422 0 0 0 2.683-1.747 7.43 7.43 0 0 0 1.748-2.683c.374-.963.63-2.064.704-3.677.073-1.615.09-2.131.09-6.245 0-4.114-.017-4.63-.09-6.246-.074-1.612-.33-2.713-.704-3.677a7.43 7.43 0 0 0-1.748-2.683 7.422 7.422 0 0 0-2.683-1.747c-.963-.374-2.064-.63-3.677-.704-1.615-.074-2.131-.091-6.245-.091"/><path id="obbbb" d="M175.239 4729.51a7.779 7.779 0 1 0 0 15.557 7.779 7.779 0 0 0 0-15.557m0 12.83a5.05 5.05 0 0 1-5.05-5.051 5.05 5.05 0 1 1 10.099 0 5.05 5.05 0 0 1-5.05 5.05"/><path id="obbbc" d="M186 4729.626a2.246 2.246 0 1 1-4.492 0 2.246 2.246 0 0 1 4.492 0"/></defs><g><g transform="translate(-160 -4722)"><g><use fill="#c1b6a5" xlink:href="#obbba"/></g><g><use fill="#c1b6a5" xlink:href="#obbbb"/></g><g><use fill="#c1b6a5" xlink:href="#obbbc"/></g></g></g></svg>