<svg xmlns="http://www.w3.org/2000/svg" xmlns:xlink="http://www.w3.org/1999/xlink" width="42" height="24" viewBox="0 0 42 24"><defs><path id="6rtja" d="M100.55 4749.9h2.51s.758-.084 1.145-.502c.357-.384.345-1.105.345-1.105s-.049-3.374 1.514-3.87c1.542-.49 3.521 3.26 5.618 4.703 1.586 1.09 2.792.852 2.792.852l5.609-.079s2.934-.181 1.543-2.492c-.115-.189-.81-1.709-4.171-4.833-3.517-3.27-3.046-2.74 1.19-8.396 2.58-3.445 3.612-5.547 3.29-6.448-.307-.858-2.205-.631-2.205-.631l-6.315.039s-.469-.064-.816.144c-.34.204-.557.679-.557.679s-1 2.665-2.332 4.932c-2.813 4.782-3.937 5.036-4.397 4.738-1.07-.692-.802-2.78-.802-4.264 0-4.636.702-6.568-1.367-7.068-.686-.166-1.192-.275-2.948-.294-2.253-.023-4.16.007-5.24.537-.718.353-1.273 1.138-.935 1.183.418.055 1.363.255 1.864.938.647.883.624 2.863.624 2.863s.373 5.456-.868 6.134c-.851.465-2.019-.484-4.526-4.824-1.284-2.222-2.254-4.68-2.254-4.68s-.187-.459-.52-.704c-.405-.298-.97-.392-.97-.392l-6.002.039s-.9.025-1.232.418c-.294.349-.023 1.07-.023 1.07s4.698 11.01 10.018 16.558c4.878 5.088 10.418 4.754 10.418 4.754"/></defs><g><g clip-path="url(#clip-51BD68F7-541A-45D8-B5A9-4D4B1FBC74CD)" transform="translate(-80 -4726)"><use fill="#c1b6a5" xlink:href="#6rtja"/></g></g></svg>