<svg xmlns="http://www.w3.org/2000/svg" xmlns:xlink="http://www.w3.org/1999/xlink" width="16" height="17" viewBox="0 0 16 17"><defs><path id="nt58a" d="M1272.894 109.671c2.123 0 3.434-1.27 3.835-3.652a.54.54 0 1 0-1.062-.18c-.318 1.89-1.21 2.753-2.773 2.753-1.558 0-2.41-.854-2.664-2.735a.539.539 0 1 0-1.067.144c.322 2.39 1.601 3.67 3.73 3.67zm-7.4-6.173v-1.08h.817l-.234.558v.522zm14.775-1.08v1.08h-.356v-.528l-.215-.551zm-14.192 1.08h13.836v11.423h-13.836zm13.62-1.08h-13.386l.98-2.339h11.493zM1265 114.922c0 .596.482 1.079 1.077 1.079h13.846c.595 0 1.077-.483 1.077-1.08v-12.052l-.037-.197-1.167-2.985a1.077 1.077 0 0 0-1.003-.686h-11.501c-.434 0-.826.26-.994.661l-1.256 2.998-.042.209z"/><path id="nt58c" d="M1265 116V99h16v17z"/><clipPath id="nt58b"><use xlink:href="#nt58a"/></clipPath></defs><g><g transform="translate(-1265 -99)"><g><g><g><use fill="#979797" xlink:href="#nt58a"/></g><g clip-path="url(#nt58b)"><g><use xlink:href="#nt58c"/></g></g></g></g></g></g></svg>