<?xml version="1.0" encoding="UTF-8"?>
<svg width="230px" height="226px" viewBox="0 0 230 226" version="1.1" xmlns="http://www.w3.org/2000/svg" xmlns:xlink="http://www.w3.org/1999/xlink">
    <!-- Generator: Sketch 52.3 (67297) - http://www.bohemiancoding.com/sketch -->
    <title>like</title>
    <desc>Created with Sketch.</desc>
    <defs>
        <path d="M13.5947047,25.3871854 C13.9674134,25.7501144 14.4684318,25.9524027 14.99389,25.9524027 C15.5132383,25.9524027 16.0264766,25.7441648 16.3930754,25.3871854 L27.3727088,14.6956522 C29.0407332,13.0713959 29.9572301,10.9116705 29.9633401,8.62105263 C29.9633401,6.32448513 29.0468432,4.16475973 27.3788187,2.54050343 C25.7107943,0.91624714 23.4989817,0.023798627 21.1405295,0.023798627 C18.8248473,0.023798627 16.6435845,0.886498856 14.98778,2.45720824 C13.3258656,0.880549199 11.1384929,0.0118993135 8.81670061,0.0118993135 C6.46435845,0.0118993135 4.25254582,0.904347826 2.58452138,2.52265446 C0.916496945,4.14691076 0,6.30663616 0,8.60320366 C0,10.8938215 0.922606925,13.0535469 2.59063136,14.6778032 L13.5947047,25.3871854 Z M3.64765784,3.55789474 C5.02851324,2.21327231 6.86761711,1.46956522 8.82281059,1.46956522 C10.7780041,1.46956522 12.6142084,2.29660106 14.0011738,3.64717315 L14.4533123,4.08744775 C14.5938418,4.22428985 14.7832512,4.30163539 14.9848805,4.30163539 C15.1803998,4.30163539 15.3759192,4.22428985 15.5164487,4.08744775 L15.9563672,3.65907246 C17.3433326,2.30850038 19.191446,1.48146453 21.1527495,1.48146453 C23.107943,1.48146453 24.9470468,2.22517162 26.3279022,3.56979405 C27.7148676,4.92036613 28.4725051,6.71121281 28.4725051,8.61510297 C28.4725051,10.5189931 27.7087576,12.3098398 26.3217923,13.6604119 L15.3360489,24.3578947 C15.1588595,24.5304348 14.8350305,24.5304348 14.6517312,24.3578947 L3.65376782,13.6485126 C2.26680244,12.2979405 1.50305499,10.5070938 1.50305499,8.60320366 C1.50305499,6.6993135 2.26680244,4.90846682 3.64765784,3.55789474 Z" id="path-1"></path>
    </defs>
    <g id="Page-1" stroke="none" stroke-width="1" fill="none" fill-rule="evenodd">
        <g id="Main-Page" transform="translate(-330.000000, -2057.000000)">
            <rect fill="#FFFFFF" x="0" y="0" width="1440" height="4870"></rect>
            <g id="Icon/like" transform="translate(430.000000, 2157.000000)">
                <g id="white">
                    <mask id="mask-2" fill="white">
                        <use xlink:href="#path-1"></use>
                    </mask>
                    <use id="Mask" fill="#FFFFFF" fill-rule="nonzero" xlink:href="#path-1"></use>
                    <g id="color/white" mask="url(#mask-2)" fill="#FFFFFF" fill-rule="nonzero">
                        <rect id="white" x="0" y="0" width="30" height="26"></rect>
                    </g>
                </g>
            </g>
        </g>
    </g>
</svg>