<svg id="Слой_1" data-name="Слой 1" xmlns="http://www.w3.org/2000/svg" xmlns:xlink="http://www.w3.org/1999/xlink" viewBox="0 0 29.96 25.95"><defs><style>.cls-1{fill:#fff;}.cls-2{fill:#e5b194;}.cls-3{mask:url(#mask);}</style><mask id="mask" x="0" y="0" width="30" height="26" maskUnits="userSpaceOnUse"><g id="mask-2"><path id="path-1" class="cls-1" d="M13.59,25.39a2,2,0,0,0,2.8,0l11-10.69a8.44,8.44,0,0,0,0-12.16A9,9,0,0,0,15,2.46a9,9,0,0,0-12.41.06,8.44,8.44,0,0,0,0,12.16Z"/></g></mask></defs><title>Монтажная область 1</title><g id="Icon_ike_hover" data-name="Icon/ike_hover"><g id="skin"><g id="Mask-2-2" data-name="Mask"><path id="path-1-2" data-name="path-1" class="cls-2" d="M13.59,25.39a2,2,0,0,0,2.8,0l11-10.69a8.44,8.44,0,0,0,0-12.16A9,9,0,0,0,15,2.46a9,9,0,0,0-12.41.06,8.44,8.44,0,0,0,0,12.16Z"/></g><g class="cls-3"><g id="color_skin" data-name="color/skin"><rect id="skin-2" data-name="skin" class="cls-2" width="30" height="26"/></g></g></g></g></svg>