<svg id="Слой_1" data-name="Слой 1" xmlns="http://www.w3.org/2000/svg" xmlns:xlink="http://www.w3.org/1999/xlink" viewBox="0 0 30 25.95"><defs><style>.cls-1{fill:#fff;}.cls-2{mask:url(#mask);}.cls-3{fill:#e5b194;}</style><mask id="mask" x="0" y="0" width="30" height="26" maskUnits="userSpaceOnUse"><g id="mask-2"><path id="path-1" class="cls-1" d="M13.59,25.39a2,2,0,0,0,2.8,0l11-10.69a8.44,8.44,0,0,0,0-12.16A9,9,0,0,0,15,2.46a9,9,0,0,0-12.41.06,8.44,8.44,0,0,0,0,12.16ZM3.65,3.56A7.35,7.35,0,0,1,8.82,1.47,7.46,7.46,0,0,1,14,3.65l.45.44A.78.78,0,0,0,15,4.3a.81.81,0,0,0,.54-.21L16,3.66a7.36,7.36,0,0,1,10.37-.09,7,7,0,0,1,0,10.09l-11,10.7a.53.53,0,0,1-.69,0l-11-10.71a7,7,0,0,1,0-10.09Z"/></g></mask></defs><title>Монтажная область 1</title><g id="Icon_like" data-name="Icon/like"><g id="white"><g id="Mask-2-2" data-name="Mask"><path id="path-1-2" data-name="path-1" class="cls-1" d="M13.59,25.39a2,2,0,0,0,2.8,0l11-10.69a8.44,8.44,0,0,0,0-12.16A9,9,0,0,0,15,2.46a9,9,0,0,0-12.41.06,8.44,8.44,0,0,0,0,12.16ZM3.65,3.56A7.35,7.35,0,0,1,8.82,1.47,7.46,7.46,0,0,1,14,3.65l.45.44A.78.78,0,0,0,15,4.3a.81.81,0,0,0,.54-.21L16,3.66a7.36,7.36,0,0,1,10.37-.09,7,7,0,0,1,0,10.09l-11,10.7a.53.53,0,0,1-.69,0l-11-10.71a7,7,0,0,1,0-10.09Z"/></g><g class="cls-2"><g id="color_skin" data-name="color/skin"><rect id="skin" class="cls-3" width="30" height="26"/></g></g></g></g></svg>